# xmcd
#
# Track frame offsets:
#	150
#	17603
#	43669
#	61238
#	82369
#	102359
#	118334
#	140732
#	160367
#	176708
#	204126
#	222535
#
# Disc length: 3305 seconds
#
# Revision: 1
# Processed by: cddbd v1.4PL0 Copyright (c) Steve Scherf et al.
# Submitted via: audiograbber 1.81.02
#
DISCID=b50ce70c
DTITLE=Zingari Swing - "The Heart Take Flight"
DYEAR=1900
DGENRE=Country
TTITLE0=Hearts Of Stone
TTITLE1=A Long Time Gone
TTITLE2=A Time To Dance
TTITLE3=China Blue
TTITLE4=That Ain't Lovin'
TTITLE5=Stumbling Blind
TTITLE6=Life Is All You Get
TTITLE7=Travelling Through
TTITLE8=Living For The Day
TTITLE9=Dan Cullen
TTITLE10=More Than
TTITLE11=The Worlds Collide
EXTD=
EXTT0=
EXTT1=
EXTT2=
EXTT3=
EXTT4=
EXTT5=
EXTT6=
EXTT7=
EXTT8=
EXTT9=
EXTT10=
EXTT11=
PLAYORDER=
